<svg id="Layer_1" data-name="Layer 1" xmlns="http://www.w3.org/2000/svg" viewBox="0 0 141.57 133.51"><defs><style>.cls-1{fill:#705eae;}</style></defs><title>logo Retiro Urbano</title><path d="M51.1,119.34v-11a5.38,5.38,0,0,1,1.75-4,6.89,6.89,0,0,1,4.74-1.48,6.53,6.53,0,0,1,4.55,1.48,5.48,5.48,0,0,1,1.74,4,5.69,5.69,0,0,1-1.21,3.48,5.38,5.38,0,0,1-3.16,1.81,6.83,6.83,0,0,1,.93.62,3.4,3.4,0,0,1,.66.76,3.68,3.68,0,0,1,.41,1,5.75,5.75,0,0,1,.14,1.32v2.06h-2.6a3.8,3.8,0,0,0,0-.4c0-.22,0-.46,0-.73v-1.46a5.24,5.24,0,0,0-.21-1.18,1.88,1.88,0,0,0-.45-.75,3.17,3.17,0,0,0-.81-.54c-.33-.16-.75-.34-1.27-.55a7.12,7.12,0,0,1-1.37-.51,4.6,4.6,0,0,1-1.34-.93v7ZM53.64,109a3.79,3.79,0,0,0,.41,1.69,3.24,3.24,0,0,0,2.1,1.66,4.67,4.67,0,0,0,1.33.14,5.08,5.08,0,0,0,1.38-.15,3.41,3.41,0,0,0,1.25-.62,3.32,3.32,0,0,0,.89-1.19,4.45,4.45,0,0,0,.34-1.86v-.77a4.48,4.48,0,0,0-.34-1.86,3.32,3.32,0,0,0-.89-1.19,3.41,3.41,0,0,0-1.25-.62,5.5,5.5,0,0,0-1.38-.15,4.6,4.6,0,0,0-1.37.17,3.37,3.37,0,0,0-1.24.62,3.32,3.32,0,0,0-.89,1.19,4.32,4.32,0,0,0-.34,1.84Z" transform="translate(-51.1 -0.25)"/><path d="M67.3,114.55a7.43,7.43,0,0,0,.26,1.24,3.4,3.4,0,0,0,.59,1.17,3.22,3.22,0,0,0,1.07.88,3.46,3.46,0,0,0,1.66.36,9.14,9.14,0,0,0,2.21-.38l.17.73c-.45.21-.92.4-1.39.57a3.51,3.51,0,0,1-1.48.22,5.79,5.79,0,0,1-2.15-.39,5.24,5.24,0,0,1-2.87-2.83,5.94,5.94,0,0,1-.47-2.18,5.54,5.54,0,0,1,.39-2.08,5.34,5.34,0,0,1,1.12-1.71,5.57,5.57,0,0,1,3.81-1.67,5.76,5.76,0,0,1,2.2.46,4.87,4.87,0,0,1,1.7,1.17,5,5,0,0,1,1.09,1.72,5.1,5.1,0,0,1,.33,2.06c0,.08,0,.18,0,.32s0,.26,0,.34ZM69,110a2.94,2.94,0,0,0-.84.77,3.76,3.76,0,0,0-.54,1.1,6.61,6.61,0,0,0-.27,1.28h5.79a4.42,4.42,0,0,0-1-2.63,2.61,2.61,0,0,0-2-.82h0A2.2,2.2,0,0,0,69,110Z" transform="translate(-51.1 -0.25)"/><path d="M82.87,109.57H80.31v9.82H77.86v-9.82H75.27v-1.29h2.59v-5.47h2.45v5.47h2.56Z" transform="translate(-51.1 -0.25)"/><path d="M84.64,103.32a1.66,1.66,0,0,1,2.82,1.17,1.39,1.39,0,0,1-.15.63,1.78,1.78,0,0,1-.38.53,2,2,0,0,1-.54.36,1.43,1.43,0,0,1-.59.13,1.59,1.59,0,0,1-1.16-.48,1.66,1.66,0,0,1-.47-1.17A1.62,1.62,0,0,1,84.64,103.32Zm2.49,16H84.59V108.26h2.54Z" transform="translate(-51.1 -0.25)"/><path d="M96.31,108.33l.51,0v1.15a4.87,4.87,0,0,0-.55-.06h-.56a4.53,4.53,0,0,0-1.36.17,3.24,3.24,0,0,0-1.24.63,3.07,3.07,0,0,0-.89,1.18,4.34,4.34,0,0,0-.35,1.84v6.12H89.33v-5.24A5.51,5.51,0,0,1,91,109.89a6.8,6.8,0,0,1,4.82-1.56Z" transform="translate(-51.1 -0.25)"/><path d="M106.24,108.81a4.82,4.82,0,0,1,1.68,1.23,5.32,5.32,0,0,1,1,1.75,7.63,7.63,0,0,1,.37,2.08,8.19,8.19,0,0,1-.36,2.13,4.68,4.68,0,0,1-1,1.74,4.73,4.73,0,0,1-1.68,1.19,6.41,6.41,0,0,1-2.49.44,6.87,6.87,0,0,1-2.59-.44,4.8,4.8,0,0,1-1.76-1.21,5,5,0,0,1-1-1.75,7.65,7.65,0,0,1-.38-2.1,6.93,6.93,0,0,1,.36-2.08,4.86,4.86,0,0,1,1-1.75,5,5,0,0,1,1.77-1.23,6.75,6.75,0,0,1,2.6-.46A6,6,0,0,1,106.24,108.81Zm-5.45,7.28a3,3,0,0,0,.63,1.18,2.37,2.37,0,0,0,1,.63,3.7,3.7,0,0,0,1.26.16,3.64,3.64,0,0,0,1.26-.15,2.16,2.16,0,0,0,1-.62,3,3,0,0,0,.63-1.19,6.56,6.56,0,0,0,.22-1.85v-.78a6.56,6.56,0,0,0-.22-1.85,3,3,0,0,0-.63-1.19,2.16,2.16,0,0,0-1-.62,3.89,3.89,0,0,0-1.26-.16,3.7,3.7,0,0,0-1.26.17,2.18,2.18,0,0,0-1,.63,3,3,0,0,0-.63,1.18,6.43,6.43,0,0,0-.22,1.84v.78A6.43,6.43,0,0,0,100.79,116.09Z" transform="translate(-51.1 -0.25)"/><path d="M129.14,102.83h2.54v10.73a5.54,5.54,0,0,1-1.67,4.25,6.8,6.8,0,0,1-4.82,1.56,8,8,0,0,1-2.66-.41,5.54,5.54,0,0,1-2-1.16,4.8,4.8,0,0,1-1.24-1.82,6.61,6.61,0,0,1-.42-2.42V102.83h2.54v11.42a4.6,4.6,0,0,0,.34,1.85,3.15,3.15,0,0,0,.9,1.19,3.19,3.19,0,0,0,1.25.62,4.64,4.64,0,0,0,1.38.15,4.52,4.52,0,0,0,1.36-.16,3.55,3.55,0,0,0,1.24-.63,3.07,3.07,0,0,0,.89-1.18,4.34,4.34,0,0,0,.35-1.84Z" transform="translate(-51.1 -0.25)"/><path d="M140.53,108.33l.51,0v1.15a4.8,4.8,0,0,0-.56-.06h-.55a4.64,4.64,0,0,0-1.37.17,3.24,3.24,0,0,0-2.13,1.81,4.35,4.35,0,0,0-.34,1.84v6.12h-2.54v-5.24a5.51,5.51,0,0,1,1.67-4.24,6.8,6.8,0,0,1,4.82-1.56Z" transform="translate(-51.1 -0.25)"/><path d="M142.27,113.34V102.79h2.54l0,6.18a9,9,0,0,1,1.41-.54,5.8,5.8,0,0,1,1.75-.23,6.66,6.66,0,0,1,2.47.4,4.53,4.53,0,0,1,1.68,1.15,5.08,5.08,0,0,1,1,1.78,8.6,8.6,0,0,1,.37,2.32,8.32,8.32,0,0,1-.37,2.29,4.82,4.82,0,0,1-1,1.74,4.32,4.32,0,0,1-1.68,1.1,6.88,6.88,0,0,1-2.47.39,7.59,7.59,0,0,1-2.59-.39,4.48,4.48,0,0,1-1.76-1.1,4.56,4.56,0,0,1-1-1.74,8.3,8.3,0,0,1-.38-2.29Zm2.54.91a6.43,6.43,0,0,0,.22,1.84,3,3,0,0,0,.63,1.18,2.37,2.37,0,0,0,1,.63,3.7,3.7,0,0,0,1.26.16,3.64,3.64,0,0,0,1.26-.15,2.16,2.16,0,0,0,1-.62,3,3,0,0,0,.63-1.19,6.56,6.56,0,0,0,.22-1.85v-.78a6.76,6.76,0,0,0-.22-1.87,3.34,3.34,0,0,0-.63-1.25,2.19,2.19,0,0,0-1-.67,3.21,3.21,0,0,0-1.26-.18,3.27,3.27,0,0,0-1.26.19,2.29,2.29,0,0,0-1,.68,3.36,3.36,0,0,0-.63,1.24,6.63,6.63,0,0,0-.22,1.86Z" transform="translate(-51.1 -0.25)"/><path d="M166.67,119.37h-2.56v-.07l0-2.21a7.64,7.64,0,0,1-.74,1.13,3.59,3.59,0,0,1-.74.69,2.45,2.45,0,0,1-.81.36,4.37,4.37,0,0,1-.91.1,7.18,7.18,0,0,1-2.48-.38,4.22,4.22,0,0,1-1.67-1.09,4.58,4.58,0,0,1-1-1.73,7.33,7.33,0,0,1,0-4.6,4.58,4.58,0,0,1,1-1.73,4.24,4.24,0,0,1,1.67-1.1,6.94,6.94,0,0,1,2.48-.39,7.59,7.59,0,0,1,2.59.39,4.44,4.44,0,0,1,1.76,1.1,4.6,4.6,0,0,1,1,1.73,8.44,8.44,0,0,1,.38,2.3v5.5Zm-2.54-5.9a6.81,6.81,0,0,0-.22-1.84,3,3,0,0,0-.63-1.18,2.22,2.22,0,0,0-1-.63,3.61,3.61,0,0,0-1.25-.17,3.89,3.89,0,0,0-1.26.16,2.16,2.16,0,0,0-1,.62,2.75,2.75,0,0,0-.63,1.19,6.56,6.56,0,0,0-.22,1.85v.78a6.56,6.56,0,0,0,.22,1.85,2.75,2.75,0,0,0,.63,1.19,2.16,2.16,0,0,0,1,.62,3.64,3.64,0,0,0,1.26.15,2.53,2.53,0,0,0,2.24-1.14,5.87,5.87,0,0,0,.85-3.4Z" transform="translate(-51.1 -0.25)"/><path d="M176.82,111.7a3,3,0,0,0-.53-1.19,1.9,1.9,0,0,0-.88-.62,3.34,3.34,0,0,0-1.22-.17,4.16,4.16,0,0,0-1.25.15,2.28,2.28,0,0,0-1,.62,3.05,3.05,0,0,0-.63,1.19,7,7,0,0,0-.22,1.86v5.8h-2.54v-5.12A6.07,6.07,0,0,1,170,110a5.28,5.28,0,0,1,4.09-1.55,6.72,6.72,0,0,1,2.52.41,4.27,4.27,0,0,1,1.69,1.15,4.76,4.76,0,0,1,1,1.83,8.93,8.93,0,0,1,.3,2.41v5.12H177v-5.8A7.88,7.88,0,0,0,176.82,111.7Z" transform="translate(-51.1 -0.25)"/><path d="M189.62,108.81A4.82,4.82,0,0,1,191.3,110a5.15,5.15,0,0,1,1,1.75,7.63,7.63,0,0,1,.37,2.08,8.19,8.19,0,0,1-.36,2.13,4.68,4.68,0,0,1-1,1.74,4.73,4.73,0,0,1-1.68,1.19,6.41,6.41,0,0,1-2.49.44,6.87,6.87,0,0,1-2.59-.44,4.8,4.8,0,0,1-1.76-1.21,5,5,0,0,1-1-1.75,7.65,7.65,0,0,1-.38-2.1,6.93,6.93,0,0,1,.36-2.08,4.86,4.86,0,0,1,1-1.75,5,5,0,0,1,1.77-1.23,6.75,6.75,0,0,1,2.6-.46A6,6,0,0,1,189.62,108.81Zm-5.45,7.28a3,3,0,0,0,.63,1.18,2.37,2.37,0,0,0,1,.63,3.7,3.7,0,0,0,1.26.16,3.64,3.64,0,0,0,1.26-.15,2.16,2.16,0,0,0,1-.62,3,3,0,0,0,.63-1.19,6.56,6.56,0,0,0,.22-1.85v-.78a6.56,6.56,0,0,0-.22-1.85,3,3,0,0,0-.63-1.19,2.16,2.16,0,0,0-1-.62,3.89,3.89,0,0,0-1.26-.16,3.7,3.7,0,0,0-1.26.17,2.18,2.18,0,0,0-1,.63,3,3,0,0,0-.63,1.18,6.43,6.43,0,0,0-.22,1.84v.78A6.43,6.43,0,0,0,184.17,116.09Z" transform="translate(-51.1 -0.25)"/><path d="M100.64,125.62l-2.3,3.2a.26.26,0,0,1-.21.11h0a.25.25,0,0,1-.22-.11l-2.3-3.19v5.91a.25.25,0,0,1-.5,0v-6.66a.23.23,0,0,1,.1-.19l0,0a.25.25,0,0,1,.35.06l2.56,3.55,2.55-3.55a.25.25,0,0,1,.35-.06l.07.08a.33.33,0,0,1,0,.13v6.66a.25.25,0,0,1-.24.25.24.24,0,0,1-.25-.25Z" transform="translate(-51.1 -0.25)"/><path d="M107.88,127v4.54a.25.25,0,0,1-.5,0v-.75a2.34,2.34,0,0,1-1.89,1,2.52,2.52,0,0,1,0-5,2.33,2.33,0,0,1,1.89,1V127a.25.25,0,0,1,.5,0Zm-.5,2.27a1.89,1.89,0,1,0-1.89,2A2,2,0,0,0,107.38,129.27Z" transform="translate(-51.1 -0.25)"/><path d="M109.67,130.74a.24.24,0,0,1,.34,0,2.7,2.7,0,0,0,1.55.59,1.52,1.52,0,0,0,1-.31.76.76,0,0,0,.38-.62.78.78,0,0,0-.36-.61,2.35,2.35,0,0,0-1.07-.37h0a2.94,2.94,0,0,1-1.14-.4,1,1,0,0,1-.54-.9,1.25,1.25,0,0,1,.54-1,2.22,2.22,0,0,1,1.24-.34,2.7,2.7,0,0,1,1.5.55.27.27,0,0,1,.07.35.25.25,0,0,1-.34.07,2.17,2.17,0,0,0-1.23-.5,1.57,1.57,0,0,0-1,.28.75.75,0,0,0-.32.58.58.58,0,0,0,.29.5,2.41,2.41,0,0,0,1,.35h0a3.58,3.58,0,0,1,1.22.41,1.27,1.27,0,0,1,.57,1,1.29,1.29,0,0,1-.58,1,2,2,0,0,1-1.25.4,3,3,0,0,1-1.86-.72A.22.22,0,0,1,109.67,130.74Z" transform="translate(-51.1 -0.25)"/><path d="M114.62,130.74a.25.25,0,0,1,.35,0,2.66,2.66,0,0,0,1.54.59,1.57,1.57,0,0,0,1-.31.79.79,0,0,0,.38-.62.78.78,0,0,0-.36-.61,2.44,2.44,0,0,0-1.07-.37h0a2.94,2.94,0,0,1-1.14-.4,1,1,0,0,1-.55-.9,1.26,1.26,0,0,1,.55-1,2.21,2.21,0,0,1,1.23-.34,2.67,2.67,0,0,1,1.5.55.25.25,0,0,1,.07.35.24.24,0,0,1-.33.07,2.18,2.18,0,0,0-1.24-.5,1.51,1.51,0,0,0-.95.28.75.75,0,0,0-.32.58.6.6,0,0,0,.28.5,2.47,2.47,0,0,0,1,.35h0a3.56,3.56,0,0,1,1.23.41,1.26,1.26,0,0,1,.56,1,1.28,1.28,0,0,1-.57,1,2,2,0,0,1-1.26.4,3.05,3.05,0,0,1-1.86-.72A.24.24,0,0,1,114.62,130.74Z" transform="translate(-51.1 -0.25)"/><path d="M124.25,127v4.54a.25.25,0,1,1-.49,0v-.75a2.34,2.34,0,0,1-1.89,1,2.52,2.52,0,0,1,0-5,2.33,2.33,0,0,1,1.89,1V127a.25.25,0,1,1,.49,0Zm-.49,2.27a1.89,1.89,0,1,0-1.89,2A2,2,0,0,0,123.76,129.27Z" transform="translate(-51.1 -0.25)"/><path d="M131.15,131.39a2.36,2.36,0,0,1-2.37,2.36,2.68,2.68,0,0,1-1-.23.26.26,0,0,1-.1-.33.22.22,0,0,1,.32-.11,1.9,1.9,0,0,0,.83.18,1.86,1.86,0,0,0,1.88-1.87v-.62a2.27,2.27,0,0,1-1.88,1,2.51,2.51,0,0,1,0-5,2.3,2.3,0,0,1,1.88,1V127a.26.26,0,0,1,.26-.25.25.25,0,0,1,.23.25Zm-.49-2.14a1.88,1.88,0,1,0-1.88,2A2,2,0,0,0,130.66,129.25Z" transform="translate(-51.1 -0.25)"/><path d="M133.18,129.28a2.44,2.44,0,1,1,4.87-.18h0v0a.23.23,0,0,1-.25.22h-4.13a2,2,0,0,0,2,1.94,1.9,1.9,0,0,0,1.63-.92.24.24,0,0,1,.33-.08.27.27,0,0,1,.08.35,2.39,2.39,0,0,1-2,1.14A2.48,2.48,0,0,1,133.18,129.28Zm.52-.4h3.82a1.93,1.93,0,0,0-3.82,0Z" transform="translate(-51.1 -0.25)"/><path d="M147,128.81a1.56,1.56,0,1,0-3.11,0v2.82a.25.25,0,0,1-.12.13l-.13,0h-.07s0,0-.06,0l0,0,0,0,0,0s0,0,0,0v0a0,0,0,0,0,0,0v-2.8a1.56,1.56,0,1,0-3.11,0v2.74a.22.22,0,0,1-.11.2l-.06,0H140a.26.26,0,0,1-.2-.18V127a.24.24,0,1,1,.48,0v.48a2,2,0,0,1,1.55-.72,2.06,2.06,0,0,1,1.8,1.07,2.1,2.1,0,0,1,1.81-1.07,2.05,2.05,0,0,1,2.05,2v2.74a.25.25,0,0,1-.49,0Z" transform="translate(-51.1 -0.25)"/><path d="M152.3,129.28a2.44,2.44,0,1,1,4.87-.18h0v0a.23.23,0,0,1-.24.22h-4.14a2,2,0,0,0,2,1.94,1.89,1.89,0,0,0,1.62-.92.25.25,0,0,1,.33-.08.27.27,0,0,1,.08.35,2.39,2.39,0,0,1-2,1.14A2.48,2.48,0,0,1,152.3,129.28Zm.52-.4h3.82a2,2,0,0,0-1.89-1.63A2,2,0,0,0,152.82,128.88Z" transform="translate(-51.1 -0.25)"/><path d="M161.79,130.44a.22.22,0,0,1,.32,0,3.89,3.89,0,0,0,2.36.93,2.74,2.74,0,0,0,1.58-.47,1.32,1.32,0,0,0,.62-1.07,1.15,1.15,0,0,0-.58-1,4.9,4.9,0,0,0-1.67-.59h0a4.49,4.49,0,0,1-1.7-.6,1.5,1.5,0,0,1-.74-1.26,1.68,1.68,0,0,1,.75-1.34,3,3,0,0,1,1.74-.53,4,4,0,0,1,2.22.83.24.24,0,0,1,.06.32.22.22,0,0,1-.31.07,3.56,3.56,0,0,0-2-.77,2.54,2.54,0,0,0-1.47.44,1.22,1.22,0,0,0-.56,1,1,1,0,0,0,.53.88,4.23,4.23,0,0,0,1.54.54h0a5,5,0,0,1,1.83.66,1.6,1.6,0,0,1,.79,1.36,1.83,1.83,0,0,1-.81,1.44,3.15,3.15,0,0,1-1.85.56,4.45,4.45,0,0,1-2.65-1A.24.24,0,0,1,161.79,130.44Z" transform="translate(-51.1 -0.25)"/><path d="M173.09,127v4.54a.25.25,0,0,1-.5,0v-.75a2.34,2.34,0,0,1-1.89,1,2.52,2.52,0,0,1,0-5,2.33,2.33,0,0,1,1.89,1V127a.25.25,0,0,1,.5,0Zm-.5,2.27a1.89,1.89,0,1,0-1.89,2A2,2,0,0,0,172.59,129.27Z" transform="translate(-51.1 -0.25)"/><path d="M175.12,129.73V127a.25.25,0,0,1,.5,0v2.74a1.55,1.55,0,0,0,1.54,1.57,1.57,1.57,0,0,0,1.56-1.57V127a.25.25,0,0,1,.25-.25.25.25,0,0,1,.25.25v2.74a2.05,2.05,0,1,1-4.1,0Zm1.48-3.8a.4.4,0,0,0,.33-.13l.82-.79c.07-.07.12-.13.12-.19s-.24-.24-.43-.24a.34.34,0,0,0-.29.19l-.64,1a.21.21,0,0,0,0,.11S176.53,125.93,176.6,125.93Z" transform="translate(-51.1 -0.25)"/><path d="M185.56,130.81a2.4,2.4,0,0,1-1.94,1,2.52,2.52,0,0,1,0-5,2.41,2.41,0,0,1,1.94,1v-2.9a.25.25,0,1,1,.5,0v6.7a.25.25,0,1,1-.5,0Zm0-1.45v-.16a2,2,0,1,0,0,.16Z" transform="translate(-51.1 -0.25)"/><path d="M187.8,129.28a2.44,2.44,0,1,1,4.87-.18h0v0a.23.23,0,0,1-.25.22h-4.13a2,2,0,0,0,2,1.94,1.89,1.89,0,0,0,1.62-.92.25.25,0,0,1,.33-.08.27.27,0,0,1,.08.35,2.39,2.39,0,0,1-2,1.14A2.48,2.48,0,0,1,187.8,129.28Zm.52-.4h3.82a2,2,0,0,0-1.89-1.63A2,2,0,0,0,188.32,128.88Z" transform="translate(-51.1 -0.25)"/><g id="Logo"><path class="cls-1" d="M168.75,6.62l-.69-.4-.7.4A47.75,47.75,0,0,0,145,36.44,47.75,47.75,0,0,0,122.58,6.62l-.69-.4-.69.4A47.74,47.74,0,0,0,98.8,36.46h0a47.13,47.13,0,0,1,1.38,11.34,47.62,47.62,0,0,1-1.37,11.37,47.7,47.7,0,0,0,20.37,28.58c.66.43,1.33.84,2,1.24l.33.19,0,0,.33.19a47.58,47.58,0,0,0,46.86-.4h0a47.55,47.55,0,0,0,0-82.37ZM121.89,86.18h0a44.78,44.78,0,0,1,0-76.75,44.93,44.93,0,0,1,21.7,38h0v.36A44.94,44.94,0,0,1,121.89,86.18Zm45.47.41h0a44.8,44.8,0,0,1-42.71,1.13A47.72,47.72,0,0,0,146.36,47.8v-.36h0a44.93,44.93,0,0,1,21.7-38,44.78,44.78,0,0,1-.7,77.16Z" transform="translate(-51.1 -0.25)"/><path class="cls-1" d="M98.81,59.17a47.62,47.62,0,0,0,1.37-11.37A47.13,47.13,0,0,0,98.8,36.46h0A47.52,47.52,0,0,0,52.63.25H51.24V95.36h1.39a47.4,47.4,0,0,0,23.08-6,47.43,47.43,0,0,0,23.09,6h1.38V94a47.43,47.43,0,0,0-6-23.09A47.27,47.27,0,0,0,98.81,59.17ZM54,3A44.79,44.79,0,0,1,92.54,68.12c-.19-.3-.39-.59-.59-.88l-.2-.3-.24-.33a3,3,0,0,0-.2-.29l-.2-.27,0,0c-.06-.08-.12-.15-.17-.23l-.06-.08-.18-.24,0,0-.19-.24a.35.35,0,0,0,0-.08l-.16-.21-.06-.07L90,64.59l0,0-.21-.27L89.55,64a3.11,3.11,0,0,0-.23-.28l-.46-.56-.24-.27-.23-.27h0l-.18-.22-.07-.07-.19-.21-.07-.08-.19-.21,0,0-.24-.26-.23-.24s0,0,0,0l-.22-.24-.25-.26-.26-.25-.25-.26-.49-.48-.54-.51-.26-.24-.27-.25-.26-.24-.24-.2L84,58.29l-.23-.2-.27-.23-.27-.23,0,0L83,57.4l-.41-.34-.42-.34-.28-.22-.28-.21h0l-.28-.21L81,55.85l-.28-.21-.29-.21-.29-.2-.88-.61-.3-.2c-.22-.15-.44-.3-.67-.44l-.22-.14-.28-.18,0,0-.6-.37-.3-.17,0,0-.3-.17c-.38-.23-.77-.44-1.16-.66-.63-.34-1.26-.67-1.9-1l-.72-.35-.33-.15-.73-.33-.24-.1L70.61,50c-.48-.2-1-.39-1.45-.57l-.34-.12-.33-.12L68.15,49l-.34-.12-.34-.11-.68-.22-.34-.1-1-.31L64.73,48l-.35-.09L64,47.82l-.35-.09-.7-.16-.35-.08-.7-.15-.62-.12-.62-.11-1.25-.2-.36,0-.32,0h-.08l-.3,0h-.06l-.29,0H58l-.32,0-.36,0-.22,0-.46,0c-.37,0-.75-.06-1.13-.09l-.36,0-.68,0H54ZM97.39,92.57a44.66,44.66,0,0,1-21-6l-.7-.4-.69.4a44.77,44.77,0,0,1-21,6V49.21h.11l.74,0h0l.37,0,.37,0,.36,0h0l.35,0,.3,0,.19,0H57l.18,0,.31,0,.31,0,.14,0,.33,0,.3,0h0l.36,0,.36.06h0l.26,0,.16,0,.14,0,.22,0,.1,0,.26.05.32,0,.32.07h0l.35.07.15,0,.24,0,.07,0,.53.11.44.11.69.16.34.09.32.09.72.2.33.09.28.09.07,0,.32.1h0l.32.1h0l.31.1h0l.25.08.28.1.18.06.28.1.3.11.07,0,.27.1,0,0,.24.09.14.06.24.09h0l.31.13.31.12.08,0,.21.09.45.19.26.11.31.14h0l.27.12.13.06.23.11.42.2.22.1.91.46.21.11c.92.48,1.83,1,2.73,1.54l.22.14.25.16.26.17h0l.25.17,0,0,.25.16.06,0,.22.15.07,0,.27.19.24.16.09.07.2.14.08.05.22.16.07.05.19.14.24.18.24.18,0,0,.22.17.24.18.19.15.39.3.15.13.09.07.22.18.24.2.12.1.17.14c.2.16.39.33.58.5l.24.21.26.23.24.22.16.15.12.11c.18.16.34.32.51.49q.66.63,1.29,1.29c.09.09.17.18.26.26l.25.27.31.34.18.2c.06.07.13.14.19.22l.22.24h0c0,.06.09.11.13.16l.16.18.43.51.12.15.16.19,0,0,.2.24,0,0,.18.22.18.23.14.19.09.11.14.18.28.38.18.24.21.29c.06.1.13.19.19.28l0,0,.18.26.2.3c.19.28.38.56.56.85l.17.25c.34.54.68,1.09,1,1.65h0A44.7,44.7,0,0,1,97.39,92.57Z" transform="translate(-51.1 -0.25)"/></g></svg>