<svg id="Layer_1" data-name="Layer 1" xmlns="http://www.w3.org/2000/svg" viewBox="0 0 140.5 118.04"><defs><style>.cls-1{fill:#705eae;}</style></defs><title>logo Retiro Urbano</title><path d="M.53,116V105a5.31,5.31,0,0,1,1.75-4A6.84,6.84,0,0,1,7,99.54,6.48,6.48,0,0,1,11.49,101a5.44,5.44,0,0,1,1.73,4A5.66,5.66,0,0,1,12,108.48a5.35,5.35,0,0,1-3.13,1.79,5.46,5.46,0,0,1,.92.62,3.36,3.36,0,0,1,.66.75,3.61,3.61,0,0,1,.4,1A5.19,5.19,0,0,1,11,114v2H8.42a1.34,1.34,0,0,0,0-.39c0-.22,0-.46,0-.73v-1.44a6.56,6.56,0,0,0-.21-1.17,1.88,1.88,0,0,0-.45-.75A3.38,3.38,0,0,0,7,111q-.5-.24-1.26-.54a7.79,7.79,0,0,1-1.36-.51A4.92,4.92,0,0,1,3.05,109v7Zm2.52-10.25a3.84,3.84,0,0,0,.41,1.67,3.21,3.21,0,0,0,.9,1.08,3.28,3.28,0,0,0,1.19.57,5.39,5.39,0,0,0,1.32.14A5,5,0,0,0,8.24,109a3.09,3.09,0,0,0,1.23-.61,3.17,3.17,0,0,0,.89-1.18,4.38,4.38,0,0,0,.34-1.84v-.77a4.38,4.38,0,0,0-.34-1.84,3.1,3.1,0,0,0-.89-1.18A3.25,3.25,0,0,0,8.24,101a5.38,5.38,0,0,0-1.37-.15,4.82,4.82,0,0,0-1.36.16,3.59,3.59,0,0,0-1.23.63,3.24,3.24,0,0,0-.89,1.17,4.46,4.46,0,0,0-.34,1.83Z" transform="translate(-0.53 -12.23)"/><path d="M16.62,111.22a6.3,6.3,0,0,0,.25,1.22,3.35,3.35,0,0,0,.59,1.16,3.18,3.18,0,0,0,1.06.88,3.54,3.54,0,0,0,1.65.35,8.83,8.83,0,0,0,2.19-.37l.17.72q-.68.31-1.38.57a3.49,3.49,0,0,1-1.47.22,5.68,5.68,0,0,1-2.13-.39,5.17,5.17,0,0,1-2.85-2.81,5.88,5.88,0,0,1-.47-2.17,5.47,5.47,0,0,1,.39-2.06,5.21,5.21,0,0,1,1.11-1.7,5.52,5.52,0,0,1,1.67-1.17,5.67,5.67,0,0,1,2.11-.48,5.56,5.56,0,0,1,2.19.45,5,5,0,0,1,1.69,1.16,5.21,5.21,0,0,1,1.07,1.71,5.05,5.05,0,0,1,.33,2c0,.07,0,.18,0,.32s0,.25,0,.34Zm1.65-4.49a2.78,2.78,0,0,0-.83.77,3.83,3.83,0,0,0-.54,1.09,6,6,0,0,0-.26,1.27h5.74a4.38,4.38,0,0,0-.94-2.61,2.62,2.62,0,0,0-2-.81h0A2.26,2.26,0,0,0,18.27,106.73Z" transform="translate(-0.53 -12.23)"/><path d="M32.06,106.26H29.52V116H27.09v-9.75H24.53V105h2.56V99.56h2.43V105h2.54Z" transform="translate(-0.53 -12.23)"/><path d="M33.83,100.06A1.53,1.53,0,0,1,35,99.58a1.59,1.59,0,0,1,1.16.48,1.6,1.6,0,0,1,.48,1.16,1.52,1.52,0,0,1-.14.63,2,2,0,0,1-.39.53,2.07,2.07,0,0,1-.53.36,1.56,1.56,0,0,1-.58.13,1.53,1.53,0,0,1-1.15-.48,1.65,1.65,0,0,1,0-2.33ZM36.29,116H33.77V105h2.52Z" transform="translate(-0.53 -12.23)"/><path d="M45.4,105a4.18,4.18,0,0,1,.51,0v1.14a4.87,4.87,0,0,0-.55-.06h-.55a4.57,4.57,0,0,0-1.36.17,3.28,3.28,0,0,0-1.22.62,3.14,3.14,0,0,0-.89,1.17,4.3,4.3,0,0,0-.34,1.83V116H38.48V110.8a5.48,5.48,0,0,1,1.66-4.22A6.73,6.73,0,0,1,44.92,105Z" transform="translate(-0.53 -12.23)"/><path d="M55.26,105.52a5,5,0,0,1,1.67,1.21,5.1,5.1,0,0,1,1,1.75,7.37,7.37,0,0,1,.38,2.06,8,8,0,0,1-.36,2.11,4.75,4.75,0,0,1-1,1.73,4.69,4.69,0,0,1-1.68,1.17,6.08,6.08,0,0,1-2.46.44,6.63,6.63,0,0,1-2.58-.44,4.85,4.85,0,0,1-1.74-1.19,4.8,4.8,0,0,1-1-1.74,7.51,7.51,0,0,1-.38-2.08,7,7,0,0,1,.35-2.06,4.73,4.73,0,0,1,2.76-3,6.52,6.52,0,0,1,2.59-.46A5.82,5.82,0,0,1,55.26,105.52Zm-5.41,7.22a3,3,0,0,0,.63,1.17,2.22,2.22,0,0,0,1,.62,3.61,3.61,0,0,0,1.25.17,4.16,4.16,0,0,0,1.25-.15,2.22,2.22,0,0,0,1-.62,2.94,2.94,0,0,0,.63-1.18,6.86,6.86,0,0,0,.22-1.84v-.77a6.86,6.86,0,0,0-.22-1.84,3,3,0,0,0-.63-1.18,2.22,2.22,0,0,0-1-.62,4.16,4.16,0,0,0-1.25-.15,3.61,3.61,0,0,0-1.25.17,2.22,2.22,0,0,0-1,.62,3,3,0,0,0-.63,1.17,6.73,6.73,0,0,0-.22,1.83v.77A6.73,6.73,0,0,0,49.85,112.74Z" transform="translate(-0.53 -12.23)"/><path d="M78,99.58H80.5v10.65a5.51,5.51,0,0,1-1.65,4.22A6.78,6.78,0,0,1,74.06,116a8,8,0,0,1-2.64-.4,5.68,5.68,0,0,1-2-1.15,4.85,4.85,0,0,1-1.23-1.81,6.71,6.71,0,0,1-.41-2.4V99.58h2.52v11.33a4.38,4.38,0,0,0,.34,1.84,3.08,3.08,0,0,0,.88,1.18,3.37,3.37,0,0,0,1.24.62,5.38,5.38,0,0,0,1.37.15,4.53,4.53,0,0,0,1.36-.17,3.4,3.4,0,0,0,1.23-.62,3.12,3.12,0,0,0,.88-1.17,4.3,4.3,0,0,0,.34-1.83Z" transform="translate(-0.53 -12.23)"/><path d="M89.29,105a4.1,4.1,0,0,1,.5,0v1.14a4.63,4.63,0,0,0-.55-.06H88.7a4.49,4.49,0,0,0-1.36.17,3.32,3.32,0,0,0-1.23.62,3.24,3.24,0,0,0-.89,1.17,4.46,4.46,0,0,0-.34,1.83V116H82.36V110.8A5.48,5.48,0,0,1,84,106.58,6.76,6.76,0,0,1,88.81,105Z" transform="translate(-0.53 -12.23)"/><path d="M91,110V99.54h2.52l0,6.13a9.81,9.81,0,0,1,1.39-.53,5.82,5.82,0,0,1,1.74-.23,6.6,6.6,0,0,1,2.46.4,4.39,4.39,0,0,1,1.66,1.14,4.82,4.82,0,0,1,1,1.76,8.58,8.58,0,0,1,.37,2.3,8.24,8.24,0,0,1-.37,2.28,4.57,4.57,0,0,1-1,1.72,4.31,4.31,0,0,1-1.66,1.1,7.06,7.06,0,0,1-2.46.38,7.78,7.78,0,0,1-2.57-.38,4.4,4.4,0,0,1-1.74-1.1,4.48,4.48,0,0,1-1-1.72,8.24,8.24,0,0,1-.37-2.28Zm2.52.9a6.36,6.36,0,0,0,.22,1.83,2.83,2.83,0,0,0,.62,1.17,2.25,2.25,0,0,0,1,.62,3.55,3.55,0,0,0,1.24.17,4.12,4.12,0,0,0,1.25-.15,2.25,2.25,0,0,0,1-.62,2.81,2.81,0,0,0,.62-1.18,6.48,6.48,0,0,0,.22-1.84v-.77a6.68,6.68,0,0,0-.22-1.86,3.21,3.21,0,0,0-.62-1.24,2.27,2.27,0,0,0-1-.67,4.52,4.52,0,0,0-2.49,0,2.38,2.38,0,0,0-1,.68,3.24,3.24,0,0,0-.62,1.23,6.56,6.56,0,0,0-.22,1.85Z" transform="translate(-0.53 -12.23)"/><path d="M115.23,116h-2.54v-.06l0-2.2a7,7,0,0,1-.74,1.12,3.58,3.58,0,0,1-.73.69,2.27,2.27,0,0,1-.8.35,3.79,3.79,0,0,1-.91.1,7.06,7.06,0,0,1-2.45-.37,4.15,4.15,0,0,1-1.67-1.09,4.48,4.48,0,0,1-1-1.72,7,7,0,0,1,0-4.55,4.55,4.55,0,0,1,1-1.72,4.28,4.28,0,0,1,1.67-1.1,7,7,0,0,1,2.45-.38,7.8,7.8,0,0,1,2.58.38,4.55,4.55,0,0,1,1.74,1.1,4.34,4.34,0,0,1,1,1.72,8.23,8.23,0,0,1,.38,2.28V116Zm-2.52-5.85a6.73,6.73,0,0,0-.22-1.83,3,3,0,0,0-.63-1.17,2.22,2.22,0,0,0-1-.62,3.61,3.61,0,0,0-1.25-.17,4.16,4.16,0,0,0-1.25.15,2.22,2.22,0,0,0-1,.62,3,3,0,0,0-.63,1.18,6.86,6.86,0,0,0-.22,1.84v.77a6.86,6.86,0,0,0,.22,1.84,2.94,2.94,0,0,0,.63,1.18,2.22,2.22,0,0,0,1,.62,4.16,4.16,0,0,0,1.25.15,2.49,2.49,0,0,0,2.22-1.14,5.69,5.69,0,0,0,.85-3.37Z" transform="translate(-0.53 -12.23)"/><path d="M125.3,108.38a2.88,2.88,0,0,0-.52-1.17,1.92,1.92,0,0,0-.88-.63,3.23,3.23,0,0,0-1.2-.16,3.58,3.58,0,0,0-1.25.15,2.23,2.23,0,0,0-1,.61,3,3,0,0,0-.62,1.19,6.43,6.43,0,0,0-.22,1.84V116h-2.52v-5.08a6,6,0,0,1,1.41-4.22,5.25,5.25,0,0,1,4.07-1.55,6.85,6.85,0,0,1,2.5.41,4.2,4.2,0,0,1,1.67,1.15,4.53,4.53,0,0,1,.94,1.81,8.85,8.85,0,0,1,.3,2.4V116h-2.52v-5.76A7.85,7.85,0,0,0,125.3,108.38Z" transform="translate(-0.53 -12.23)"/><path d="M138,105.52a5,5,0,0,1,1.67,1.21,5.1,5.1,0,0,1,1,1.75,7.37,7.37,0,0,1,.38,2.06,7.65,7.65,0,0,1-.37,2.11,4.6,4.6,0,0,1-1,1.73,4.69,4.69,0,0,1-1.68,1.17,6.08,6.08,0,0,1-2.46.44,6.63,6.63,0,0,1-2.58-.44,4.76,4.76,0,0,1-1.74-1.19,5,5,0,0,1-1-1.74,7.89,7.89,0,0,1-.37-2.08,7,7,0,0,1,.35-2.06,4.73,4.73,0,0,1,2.76-3,6.52,6.52,0,0,1,2.59-.46A5.82,5.82,0,0,1,138,105.52Zm-5.41,7.22a3,3,0,0,0,.62,1.17,2.25,2.25,0,0,0,1,.62,3.61,3.61,0,0,0,1.25.17,4.16,4.16,0,0,0,1.25-.15,2.22,2.22,0,0,0,1-.62,2.94,2.94,0,0,0,.63-1.18,6.86,6.86,0,0,0,.22-1.84v-.77a6.86,6.86,0,0,0-.22-1.84,3,3,0,0,0-.63-1.18,2.22,2.22,0,0,0-1-.62,4.16,4.16,0,0,0-1.25-.15,3.61,3.61,0,0,0-1.25.17,2.25,2.25,0,0,0-1,.62,3,3,0,0,0-.62,1.17,6.36,6.36,0,0,0-.22,1.83v.77A6.36,6.36,0,0,0,132.6,112.74Z" transform="translate(-0.53 -12.23)"/><path d="M49.7,122.2l-2.29,3.17a.24.24,0,0,1-.2.12h0a.24.24,0,0,1-.21-.12l-2.29-3.16v5.87a.24.24,0,0,1-.24.24.25.25,0,0,1-.26-.24v-6.61a.23.23,0,0,1,.1-.2l0,0a.26.26,0,0,1,.35.06l2.54,3.52,2.53-3.52a.26.26,0,0,1,.35-.06l.07.08a.33.33,0,0,1,0,.14v6.61a.25.25,0,0,1-.25.24.24.24,0,0,1-.24-.24Z" transform="translate(-0.53 -12.23)"/><path d="M56.88,123.57v4.51a.25.25,0,0,1-.49,0v-.75a2.33,2.33,0,0,1-1.87,1,2.5,2.5,0,0,1,0-5,2.33,2.33,0,0,1,1.87,1v-.73a.25.25,0,1,1,.49,0Zm-.49,2.25a1.88,1.88,0,1,0-1.87,2A1.95,1.95,0,0,0,56.39,125.82Z" transform="translate(-0.53 -12.23)"/><path d="M58.66,127.28a.24.24,0,0,1,.34,0,2.66,2.66,0,0,0,1.54.58,1.51,1.51,0,0,0,.94-.3.76.76,0,0,0,.38-.62.79.79,0,0,0-.36-.61,2.62,2.62,0,0,0-1.06-.37h0a2.89,2.89,0,0,1-1.13-.38,1,1,0,0,1-.54-.9,1.22,1.22,0,0,1,.54-1,2.18,2.18,0,0,1,1.22-.34,2.68,2.68,0,0,1,1.49.54.26.26,0,0,1,.08.35.25.25,0,0,1-.34.07,2.25,2.25,0,0,0-1.23-.5,1.44,1.44,0,0,0-.94.29.72.72,0,0,0-.32.57.6.6,0,0,0,.29.5,2.66,2.66,0,0,0,1,.35h0a3.52,3.52,0,0,1,1.21.4,1.19,1.19,0,0,1,0,2,2,2,0,0,1-1.24.4,3.08,3.08,0,0,1-1.85-.71A.24.24,0,0,1,58.66,127.28Z" transform="translate(-0.53 -12.23)"/><path d="M63.58,127.28a.24.24,0,0,1,.34,0,2.66,2.66,0,0,0,1.53.58,1.52,1.52,0,0,0,1-.3.76.76,0,0,0,.38-.62.79.79,0,0,0-.36-.61,2.62,2.62,0,0,0-1.06-.37h0a2.84,2.84,0,0,1-1.13-.38,1,1,0,0,1-.54-.9,1.22,1.22,0,0,1,.54-1,2.15,2.15,0,0,1,1.22-.34,2.71,2.71,0,0,1,1.49.54.26.26,0,0,1,.07.35.24.24,0,0,1-.33.07,2.25,2.25,0,0,0-1.23-.5,1.47,1.47,0,0,0-1,.29.74.74,0,0,0-.31.57.61.61,0,0,0,.28.5,2.73,2.73,0,0,0,1,.35h0a3.58,3.58,0,0,1,1.22.4,1.19,1.19,0,0,1,0,2,2,2,0,0,1-1.25.4,3,3,0,0,1-1.84-.71A.22.22,0,0,1,63.58,127.28Z" transform="translate(-0.53 -12.23)"/><path d="M73.14,123.57v4.51a.25.25,0,0,1-.25.24.24.24,0,0,1-.24-.24v-.75a2.35,2.35,0,0,1-1.88,1,2.5,2.5,0,0,1,0-5,2.34,2.34,0,0,1,1.88,1v-.73a.24.24,0,0,1,.24-.25A.25.25,0,0,1,73.14,123.57Zm-.49,2.25a1.88,1.88,0,1,0-1.88,2A2,2,0,0,0,72.65,125.82Z" transform="translate(-0.53 -12.23)"/><path d="M80,127.92a2.35,2.35,0,0,1-2.36,2.35,2.67,2.67,0,0,1-1-.23.27.27,0,0,1-.1-.33.23.23,0,0,1,.33-.11,1.82,1.82,0,0,0,.81.18,1.85,1.85,0,0,0,1.87-1.86v-.61a2.27,2.27,0,0,1-1.87,1,2.49,2.49,0,0,1,0-5,2.3,2.3,0,0,1,1.87,1v-.73a.25.25,0,0,1,.26-.25.24.24,0,0,1,.23.25Zm-.49-2.12a1.87,1.87,0,1,0-1.87,2A1.92,1.92,0,0,0,79.49,125.8Z" transform="translate(-0.53 -12.23)"/><path d="M82,125.83a2.42,2.42,0,0,1,4.84-.18h0v0a.23.23,0,0,1-.25.22h-4.1a2,2,0,0,0,1.94,1.92,1.88,1.88,0,0,0,1.61-.91.25.25,0,0,1,.33-.08.27.27,0,0,1,.08.35,2.39,2.39,0,0,1-2,1.13A2.46,2.46,0,0,1,82,125.83Zm.52-.4H86.3a1.94,1.94,0,0,0-1.88-1.62A2,2,0,0,0,82.51,125.43Z" transform="translate(-0.53 -12.23)"/><path d="M95.71,125.36a1.55,1.55,0,1,0-3.09,0v2.8a.25.25,0,0,1-.12.13.27.27,0,0,1-.12,0H92.3l-.06,0a.05.05,0,0,1,0,0l0,0,0,0s0,0,0,0v0a0,0,0,0,0,0,0v-2.78a1.54,1.54,0,1,0-3.08,0v2.73a.21.21,0,0,1-.11.19l-.06,0h-.1a.26.26,0,0,1-.21-.18v-4.57a.24.24,0,0,1,.24-.24.23.23,0,0,1,.24.24v.48a2,2,0,0,1,1.54-.72,2,2,0,0,1,1.79,1.06,2.06,2.06,0,0,1,1.79-1.06,2,2,0,0,1,2,2v2.73a.23.23,0,0,1-.24.23.24.24,0,0,1-.24-.23Z" transform="translate(-0.53 -12.23)"/><path d="M101,125.83a2.42,2.42,0,1,1,4.83-.18h0v0a.23.23,0,0,1-.24.22h-4.1a2,2,0,0,0,1.94,1.92,1.89,1.89,0,0,0,1.61-.91.24.24,0,0,1,.33-.08.27.27,0,0,1,.08.35,2.4,2.4,0,0,1-2,1.13A2.46,2.46,0,0,1,101,125.83Zm.52-.4h3.78a1.92,1.92,0,0,0-1.87-1.62A2,2,0,0,0,101.49,125.43Z" transform="translate(-0.53 -12.23)"/><path d="M110.39,127a.21.21,0,0,1,.31,0,3.91,3.91,0,0,0,2.35.92,2.66,2.66,0,0,0,1.57-.47,1.3,1.3,0,0,0,.61-1.06,1.14,1.14,0,0,0-.58-1,4.78,4.78,0,0,0-1.65-.58h0a4.38,4.38,0,0,1-1.69-.6,1.5,1.5,0,0,1-.73-1.25,1.66,1.66,0,0,1,.74-1.33,2.93,2.93,0,0,1,1.73-.52,4,4,0,0,1,2.2.82.24.24,0,0,1,.06.32.21.21,0,0,1-.3.06,3.54,3.54,0,0,0-2-.75,2.53,2.53,0,0,0-1.46.43,1.22,1.22,0,0,0-.56,1,1,1,0,0,0,.53.87,4.07,4.07,0,0,0,1.53.54h0a5,5,0,0,1,1.82.66,1.58,1.58,0,0,1,.78,1.34,1.83,1.83,0,0,1-.8,1.43,3.14,3.14,0,0,1-1.84.56,4.44,4.44,0,0,1-2.63-1A.22.22,0,0,1,110.39,127Z" transform="translate(-0.53 -12.23)"/><path d="M121.6,123.57v4.51a.25.25,0,0,1-.49,0v-.75a2.34,2.34,0,0,1-1.88,1,2.5,2.5,0,0,1,0-5,2.33,2.33,0,0,1,1.88,1v-.73a.25.25,0,1,1,.49,0Zm-.49,2.25a1.88,1.88,0,1,0-1.88,2A2,2,0,0,0,121.11,125.82Z" transform="translate(-0.53 -12.23)"/><path d="M123.62,126.28v-2.72a.25.25,0,1,1,.49,0v2.72a1.54,1.54,0,1,0,3.08,0v-2.72a.25.25,0,0,1,.25-.25.24.24,0,0,1,.25.25v2.72a2,2,0,1,1-4.07,0Zm1.47-3.77a.41.41,0,0,0,.33-.14l.81-.78a.29.29,0,0,0,.11-.19c0-.1-.23-.23-.42-.23a.33.33,0,0,0-.29.18l-.63,1a.21.21,0,0,0,0,.11C125,122.47,125,122.51,125.09,122.51Z" transform="translate(-0.53 -12.23)"/><path d="M134,127.35a2.4,2.4,0,0,1-1.92,1,2.5,2.5,0,0,1,0-5,2.4,2.4,0,0,1,1.92,1v-2.88a.25.25,0,0,1,.49,0v6.66a.25.25,0,0,1-.49,0Zm0-1.44v-.16a2,2,0,1,0,0,.16Z" transform="translate(-0.53 -12.23)"/><path d="M136.2,125.83a2.42,2.42,0,0,1,4.84-.18h0v0a.24.24,0,0,1-.25.22h-4.1a2,2,0,0,0,1.94,1.92,1.89,1.89,0,0,0,1.61-.91.24.24,0,0,1,.33-.08.27.27,0,0,1,.08.35,2.4,2.4,0,0,1-2,1.13A2.46,2.46,0,0,1,136.2,125.83Zm.52-.4h3.78a1.92,1.92,0,0,0-1.87-1.62A2,2,0,0,0,136.72,125.43Z" transform="translate(-0.53 -12.23)"/><g id="Logo"><path class="cls-1" d="M109.07,17.44l-.57-.33-.57.33A39,39,0,0,0,89.64,41.8,38.93,38.93,0,0,0,71.35,17.44l-.56-.33-.57.33A39,39,0,0,0,51.93,41.81h0a38.7,38.7,0,0,1,1.13,9.27,38.52,38.52,0,0,1-1.13,9.28A39,39,0,0,0,68.57,83.71c.54.35,1.09.69,1.65,1l.27.16h0l.27.15a38.87,38.87,0,0,0,38.28-.32h0a38.85,38.85,0,0,0,0-67.28Zm-38.28,65h0a36.57,36.57,0,0,1,0-62.69,36.7,36.7,0,0,1,17.72,31h0v.3A36.71,36.71,0,0,1,70.79,82.43Zm37.14.33h0a36.58,36.58,0,0,1-34.88.92,39,39,0,0,0,17.73-32.6v-.3h0a36.7,36.7,0,0,1,17.72-31,36.58,36.58,0,0,1-.57,63Z" transform="translate(-0.53 -12.23)"/><path class="cls-1" d="M51.93,60.36a38.52,38.52,0,0,0,1.13-9.28,38.7,38.7,0,0,0-1.13-9.27h0A39,39,0,0,0,33.64,17.44a38.77,38.77,0,0,0-19.43-5.21H13.08V89.92h1.13A38.77,38.77,0,0,0,33.07,85a38.77,38.77,0,0,0,18.86,4.88h1.13V88.79a38.84,38.84,0,0,0-4.88-18.85A39,39,0,0,0,51.93,60.36ZM15.34,14.51A36.59,36.59,0,0,1,46.82,67.68c-.16-.25-.32-.49-.49-.73l-.16-.24L46,66.44l-.17-.24L45.65,66l0,0-.14-.19-.05-.07-.15-.19,0,0-.15-.2,0-.06L44.94,65l0-.06a1.33,1.33,0,0,0-.14-.19l0,0-.17-.22-.19-.23-.18-.23-.38-.45c-.07-.07-.13-.15-.19-.22s-.13-.15-.19-.22h0L43.27,63,43.21,63l-.15-.17L43,62.72l-.16-.17h0l-.2-.21-.19-.21,0,0-.18-.19-.2-.21-.21-.21-.21-.21-.4-.39-.44-.42-.22-.2-.21-.2-.22-.19-.19-.17-.06-.06-.19-.16-.22-.19-.21-.18,0,0a1.56,1.56,0,0,0-.2-.16l-.33-.28-.35-.28-.23-.18L37.88,58h0l-.23-.18-.23-.17-.24-.18-.23-.17-.24-.17-.72-.5-.24-.16-.55-.36L35,56l-.23-.15h0l-.49-.3L34,55.4h0l-.24-.14-1-.54c-.51-.28-1-.54-1.55-.8l-.59-.28-.26-.13-.6-.27-.2-.08-.71-.3c-.39-.16-.78-.32-1.18-.46l-.28-.11-.27-.09-.28-.1-.27-.1-.28-.09-.56-.18-.28-.08-.84-.25-.56-.16-.29-.07-.28-.07L23.24,51l-.57-.13-.29-.07-.57-.12-.51-.1-.5-.09-1-.16-.3,0-.26,0h-.06l-.24,0h-.06l-.23,0h-.06l-.26,0-.29,0-.19,0-.37,0L16.54,50l-.3,0-.56,0h-.34ZM50.78,87.64a36.42,36.42,0,0,1-17.14-4.88l-.57-.33-.57.33a36.35,36.35,0,0,1-17.16,4.88V52.23h.09l.61,0h.3l.3,0,.29,0h0l.29,0,.24,0h.26l.14,0,.26,0,.25,0,.11,0,.27,0,.25,0h0l.29,0,.3,0h0l.21,0,.13,0,.12,0,.18,0h.08l.21,0,.26,0,.27,0h0l.29.06.13,0,.19,0h.06l.43.09.36.09.56.13.28.08.26.07.59.16.27.08.23.07.06,0,.25.07h0l.26.08h0l.26.09h0l.21.07.22.07.15,0,.23.09.24.08.06,0,.22.09h0l.2.07.11,0,.2.07,0,0,.25.1.25.1.06,0,.18.08.36.15.21.09.26.12h0l.22.09.1.05.19.09.34.16.18.09.75.37.17.09c.75.39,1.5.82,2.23,1.26l.18.11.2.13.22.14h0l.21.14,0,0a1.37,1.37,0,0,0,.2.13l.05,0,.18.12,0,0,.23.16.19.13.08.06.16.11.06,0,.19.13,0,0,.16.12.19.14.2.15h0l.18.14.2.15.15.12.32.25.13.11.07,0,.18.15.19.16.1.08.14.12.48.41.19.17.21.19.2.18.13.12.1.09.42.4q.54.51,1,1.05l.21.22.2.22.26.28.14.16.16.18.18.19v0l.11.12.12.15.36.42.09.12a1,1,0,0,1,.13.16l0,0,.16.2,0,0,.14.18.15.19.12.16.07.08a.91.91,0,0,0,.11.16l.23.3.15.2.17.24.16.23,0,0,.15.21.16.24c.16.23.31.46.46.69a2.39,2.39,0,0,1,.13.21c.29.44.56.9.82,1.35h0A36.49,36.49,0,0,1,50.78,87.64Z" transform="translate(-0.53 -12.23)"/></g></svg>